#!OML:ASF F:\VICON\USERDATA\INSTALL\rory3\rory3.ASF
:FULLY-SPECIFIED
:DEGREES
85
root 0.487254 18.4073 15.1951 4.286 -2.61319 4.39158
lowerback 13.5699 -2.54698 -3.31336
upperback 1.5583 -3.88544 -0.383112
thorax -5.75812 -1.83201 2.16665
lowerneck -4.43388 2.51051 -1.05293
upperneck -9.7656 3.2885 -1.18546
head -2.31245 1.69571 -0.219784
rclavicle 4.54968e-014 1.8487e-014
rhumerus -56.3886 10.4471 -83.7715
rradius 93.3675
rwrist -5.17453
rhand -37.6128 33.0273
rfingers 7.12502
rthumb -10.6658 3.318
lclavicle 4.54968e-014 1.8487e-014
lhumerus -33.8053 -24.4063 93.9537
lradius 114.148
lwrist 24.3689
lhand -31.7542 6.92475
lfingers 7.12502
lthumb -5.01139 36.8455
rfemur -28.5932 3.76058 17.848
rtibia 22.2892
rfoot 6.15117 -9.83863
rtoes -6.3496
lfemur 16.0662 1.83251 -29.8966
ltibia 65.1968
lfoot 30.4412 2.42434
ltoes -13.7676
86
root 0.485444 18.2861 15.72 3.81476 -2.64159 3.94646
lowerback 14.0366 -2.45609 -2.94027
upperback 1.49113 -3.7166 -0.215494
thorax -6.10965 -1.74673 2.13242
lowerneck -3.89637 2.46229 -0.85253
upperneck -9.46472 3.20103 -1.42583
head -2.29924 1.65102 -0.332842
rclavicle -6.31141e-015 -1.3418e-014
rhumerus -55.3822 11.3218 -83.5018
rradius 93.4909
rwrist -5.70089
rhand -37.2892 32.9993
rfingers 7.12502
rthumb -10.3536 3.27414
lclavicle -6.31141e-015 -1.3418e-014
lhumerus -35.8056 -23.3401 94.536
lradius 113.256
lwrist 24.1399
lhand -32.1969 7.86658
lfingers 7.12502
lthumb -5.43884 37.7768
rfemur -27.2802 1.88235 19.3939
rtibia 23.9789
rfoot 5.14059 -4.19653
rtoes 2.53217
lfemur 14.4755 3.11281 -28.2944
ltibia 71.0037
lfoot 29.1597 2.05966
ltoes -13.9827
87
root 0.479117 18.1687 16.2395 3.3927 -2.93465 3.50374
lowerback 14.5252 -2.21482 -2.66149
upperback 1.33169 -3.36174 -0.0513849
thorax -6.57519 -1.56614 2.11363
lowerneck -3.006 2.35842 -0.734094
upperneck -9.31856 3.0489 -1.49275
head -2.40531 1.57547 -0.38417
rclavicle -1.20762e-014 -1.68967e-014
rhumerus -54.4836 12.1983 -83.2263
rradius 93.7754
rwrist -6.10169
rhand -37.4297 32.8143
rfingers 7.12502
rthumb -10.4892 3.09604
lclavicle -1.20762e-014 -1.68967e-014
lhumerus -37.7056 -22.5649 95.0472
lradius 112.225
lwrist 24.0284
lhand -32.6987 8.22228
lfingers 7.12502
lthumb -5.92329 38.1195
rfemur -26.3664 0.989156 20.548
rtibia 26.3375
rfoot 2.23055 -0.0226523
rtoes 5.76921
lfemur 12.7319 4.66991 -26.5109
ltibia 76.7456
lfoot 27.3294 2.21099
ltoes -13.3846
88
root 0.471045 18.0351 16.7429 2.9565 -3.34624 3.30889
lowerback 14.9902 -1.88928 -2.64209
upperback 1.33176 -2.93765 0.00966681
thorax -6.85237 -1.35288 2.1062
lowerneck -2.73185 2.32011 -0.718162
upperneck -8.98316 3.01414 -1.29111
head -2.34575 1.55237 -0.323102
rclavicle -8.74653e-015 8.94531e-015
rhumerus -53.3394 12.9735 -82.8706
rradius 94.365
rwrist -6.63577
rhand -37.473 32.6209
rfingers 7.12502
rthumb -10.5309 2.90469
lclavicle -8.74653e-015 8.94531e-015
lhumerus -39.3325 -21.8194 95.2512
lradius 111.326
lwrist 24.2378
lhand -33.2013 7.78487
lfingers 7.12502
lthumb -6.40854 37.6679
rfemur -25.4175 1.28373 21.0376
rtibia 29.0081
rfoot -1.25389 0.313882
rtoes 11.0599
lfemur 10.8729 6.17823 -25.0928
ltibia 82.3537
lfoot 26.0446 2.77634
ltoes -12.2489
89
root 0.456256 17.8806 17.217 2.6194 -3.79312 2.93843
lowerback 15.7852 -1.5781 -2.5487
upperback 1.32669 -2.52445 0.124984
thorax -7.31865 -1.14264 2.12436
lowerneck -2.97045 2.37107 -0.828184
upperneck -8.49229 3.11255 -0.976502
head -2.14871 1.59519 -0.19825
rclavicle 2.46493e-014 1.07344e-014
rhumerus -51.8444 13.6867 -82.5185
rradius 95.0304
rwrist -7.51651
rhand -37.269 32.5193
rfingers 7.12502
rthumb -10.3342 2.7932
lclavicle 2.46493e-014 1.07344e-014
lhumerus -40.9065 -20.8149 95.238
lradius 110.635
lwrist 24.2796
lhand -33.1901 7.0777
lfingers 7.12502
lthumb -6.39776 36.9611
rfemur -24.5852 2.70734 21.5615
rtibia 31.8396
rfoot -4.41272 -1.91157
rtoes 14.4101
lfemur 8.6309 7.65285 -23.4288
ltibia 87.9769
lfoot 25.1373 2.72979
ltoes -11.3973
